<svg xmlns="http://www.w3.org/2000/svg" width="40" height="40" viewBox="0 0 40 40">
  <defs>
    <linearGradient id="gradient1" x1="0%" y1="0%" x2="100%" y2="100%">
      <stop offset="0%" stop-color="#a14dff" />
      <stop offset="100%" stop-color="#2e6aff" />
    </linearGradient>
    <linearGradient id="gradient2" x1="100%" y1="0%" x2="0%" y2="100%">
      <stop offset="0%" stop-color="#ff3dc9" />
      <stop offset="100%" stop-color="#a14dff" />
    </linearGradient>
    <filter id="glow" x="-20%" y="-20%" width="140%" height="140%">
      <feGaussianBlur stdDeviation="2" result="blur" />
      <feComposite in="SourceGraphic" in2="blur" operator="over" />
    </filter>
  </defs>
  
  <!-- Main circular background -->
  <circle cx="20" cy="20" r="19" fill="rgba(20, 20, 40, 0.7)" stroke="url(#gradient1)" stroke-width="1" />
  
  <!-- Inner glowing circle -->
  <circle cx="20" cy="20" r="15" fill="none" stroke="url(#gradient2)" stroke-width="1.5" opacity="0.7" filter="url(#glow)" />
  
  <!-- Chat bubble shapes -->
  <path d="M15,14 L9,14 C7.9,14 7,14.9 7,16 L7,24 C7,25.1 7.9,26 9,26 L11,26 L11,30 L15,26 L21,26 C22.1,26 23,25.1 23,24 L23,16 C23,14.9 22.1,14 21,14 L15,14 Z" fill="url(#gradient1)" filter="url(#glow)" />
  
  <path d="M31,10 L25,10 C23.9,10 23,10.9 23,12 L23,14 L31,14 C32.1,14 33,14.9 33,16 L33,24 C33,25.1 32.1,26 31,26 L29,26 L29,30 L25,26 L25,28 C25,29.1 25.9,30 27,30 L31,30 L33,33 L33,30 L33,30 C34.1,30 35,29.1 35,28 L35,12 C35,10.9 34.1,10 33,10 L31,10 Z" fill="url(#gradient2)" filter="url(#glow)" opacity="0.9" />
  
  <!-- Letter A stylized -->
  <path d="M14,21 L14,17 C14,16.4 14.4,16 15,16 L17,16 C17.6,16 18,16.4 18,17 L18,21 M14,19 L18,19" stroke="white" stroke-width="1.5" stroke-linecap="round" stroke-linejoin="round" fill="none" />
  
  <!-- Small dots/particles -->
  <circle cx="27" cy="17" r="1" fill="white" opacity="0.9" />
  <circle cx="30" cy="17" r="1" fill="white" opacity="0.9" />
  <circle cx="33" cy="17" r="1" fill="white" opacity="0.9" />
</svg> 